<svg width="33" height="132" viewBox="0 0 33 132" fill="none" xmlns="http://www.w3.org/2000/svg">
<g clip-path="url(#clip0_838_518)">
<path d="M16.5 3.09375C9.11206 3.09375 3.09375 9.11206 3.09375 16.5C3.09375 23.8879 9.11206 29.9062 16.5 29.9062C23.8879 29.9062 29.9062 23.8879 29.9062 16.5C29.9062 9.11206 23.8879 3.09375 16.5 3.09375ZM16.5 5.15625C22.7761 5.15625 27.8438 10.2239 27.8438 16.5C27.8438 22.7761 22.7761 27.8438 16.5 27.8438C10.2239 27.8438 5.15625 22.7761 5.15625 16.5C5.15625 10.2239 10.2239 5.15625 16.5 5.15625ZM15.4688 9.28125V15.4688H9.28125V17.5312H15.4688V23.7188H17.5312V17.5312H23.7188V15.4688H17.5312V9.28125H15.4688Z" fill="black"/>
<g opacity="0.5">
<path d="M16.5 102.094C9.11206 102.094 3.09375 108.112 3.09375 115.5C3.09375 122.888 9.11206 128.906 16.5 128.906C23.8879 128.906 29.9062 122.888 29.9062 115.5C29.9062 108.112 23.8879 102.094 16.5 102.094ZM16.5 104.156C22.7761 104.156 27.8438 109.224 27.8438 115.5C27.8438 121.776 22.7761 126.844 16.5 126.844C10.2239 126.844 5.15625 121.776 5.15625 115.5C5.15625 109.224 10.2239 104.156 16.5 104.156ZM15.4688 108.281V114.469H9.28125V116.531H15.4688V122.719H17.5312V116.531H23.7188V114.469H17.5312V108.281H15.4688Z" fill="black"/>
</g>
<path d="M16.5 36.0938C9.11206 36.0938 3.09375 42.1121 3.09375 49.5C3.09375 56.8879 9.11206 62.9062 16.5 62.9062C23.8879 62.9062 29.9062 56.8879 29.9062 49.5C29.9062 42.1121 23.8879 36.0938 16.5 36.0938ZM16.5 38.1562C22.7761 38.1562 27.8438 43.2239 27.8438 49.5C27.8438 55.7761 22.7761 60.8438 16.5 60.8438C10.2239 60.8438 5.15625 55.7761 5.15625 49.5C5.15625 43.2239 10.2239 38.1562 16.5 38.1562Z" fill="black"/>
<path fill-rule="evenodd" clip-rule="evenodd" d="M16.5 61.875C23.3345 61.875 28.875 56.3345 28.875 49.5C28.875 42.6655 23.3345 37.125 16.5 37.125C9.66548 37.125 4.125 42.6655 4.125 49.5C4.125 56.3345 9.66548 61.875 16.5 61.875ZM15.4688 48.4688V42.2812H17.5312V48.4688H23.7188V50.5312H17.5312V56.7188H15.4688V50.5312H9.28125V48.4688H15.4688Z" fill="black"/>
<path d="M16.5 69.0938C9.11206 69.0938 3.09375 75.1121 3.09375 82.5C3.09375 89.8879 9.11206 95.9062 16.5 95.9062C23.8879 95.9062 29.9062 89.8879 29.9062 82.5C29.9062 75.1121 23.8879 69.0938 16.5 69.0938ZM16.5 71.1562C22.7761 71.1562 27.8438 76.2239 27.8438 82.5C27.8438 88.7761 22.7761 93.8438 16.5 93.8438C10.2239 93.8438 5.15625 88.7761 5.15625 82.5C5.15625 76.2239 10.2239 71.1562 16.5 71.1562Z" fill="black"/>
<path fill-rule="evenodd" clip-rule="evenodd" d="M16.5 94.875C23.3345 94.875 28.875 89.3345 28.875 82.5C28.875 75.6655 23.3345 70.125 16.5 70.125C9.66548 70.125 4.125 75.6655 4.125 82.5C4.125 89.3345 9.66548 94.875 16.5 94.875ZM15.4688 81.4688V75.2812H17.5312V81.4688H23.7188V83.5312H17.5312V89.7188H15.4688V83.5312H9.28125V81.4688H15.4688Z" fill="black"/>
</g>
<defs>
<clipPath id="clip0_838_518">
<rect width="33" height="132" fill="white"/>
</clipPath>
</defs>
</svg>
