<svg width="33" height="132" viewBox="0 0 33 132" fill="none" xmlns="http://www.w3.org/2000/svg">
<g clip-path="url(#clip0_838_732)">
<path d="M14.4294 3.09375C12.7375 3.09375 11.3438 4.48755 11.3438 6.17944V7.21875H5.15625V9.28125H7.21875V26.8125C7.21875 28.5125 8.61255 29.9062 10.3125 29.9062H22.6875C24.3875 29.9062 25.7812 28.5125 25.7812 26.8125V9.28125H27.8438V7.21875H21.6562V6.17944C21.6562 4.48755 20.2625 3.09375 18.5706 3.09375H14.4294ZM14.4294 5.15625H18.5706C19.1506 5.15625 19.5938 5.59937 19.5938 6.17944V7.21875H13.4062V6.17944C13.4062 5.59937 13.8494 5.15625 14.4294 5.15625ZM9.28125 9.28125H23.7188V26.8125C23.7188 27.3926 23.2676 27.8438 22.6875 27.8438H10.3125C9.73242 27.8438 9.28125 27.3926 9.28125 26.8125V9.28125ZM11.3438 11.3438V25.7812H13.4062V11.3438H11.3438ZM15.4688 11.3438V25.7812H17.5312V11.3438H15.4688ZM19.5938 11.3438V25.7812H21.6562V11.3438H19.5938Z" fill="black"/>
<g opacity="0.5">
<path d="M14.4294 102.094C12.7375 102.094 11.3438 103.488 11.3438 105.179V106.219H5.15625V108.281H7.21875V125.812C7.21875 127.512 8.61255 128.906 10.3125 128.906H22.6875C24.3875 128.906 25.7812 127.512 25.7812 125.812V108.281H27.8438V106.219H21.6562V105.179C21.6562 103.488 20.2625 102.094 18.5706 102.094H14.4294ZM14.4294 104.156H18.5706C19.1506 104.156 19.5938 104.599 19.5938 105.179V106.219H13.4062V105.179C13.4062 104.599 13.8494 104.156 14.4294 104.156ZM9.28125 108.281H23.7188V125.812C23.7188 126.393 23.2676 126.844 22.6875 126.844H10.3125C9.73242 126.844 9.28125 126.393 9.28125 125.812V108.281ZM11.3438 110.344V124.781H13.4062V110.344H11.3438ZM15.4688 110.344V124.781H17.5312V110.344H15.4688ZM19.5938 110.344V124.781H21.6562V110.344H19.5938Z" fill="black"/>
</g>
<path fill-rule="evenodd" clip-rule="evenodd" d="M11.3438 39.1794C11.3438 37.4875 12.7375 36.0938 14.4294 36.0938H18.5706C20.2625 36.0938 21.6562 37.4875 21.6562 39.1794V40.2188H27.8438V42.2812H25.7812V59.8125C25.7812 61.5125 24.3875 62.9062 22.6875 62.9062H10.3125C8.61255 62.9062 7.21875 61.5125 7.21875 59.8125V42.2812H5.15625V40.2188H11.3438V39.1794ZM18.5706 38.1562H14.4294C13.8494 38.1562 13.4062 38.5994 13.4062 39.1794V40.2188H19.5938V39.1794C19.5938 38.5994 19.1506 38.1562 18.5706 38.1562ZM11.3438 44.3438V58.7812H13.4062V44.3438H11.3438ZM15.4688 44.3438V58.7812H17.5312V44.3438H15.4688ZM19.5938 44.3438V58.7812H21.6562V44.3438H19.5938Z" fill="black"/>
<path fill-rule="evenodd" clip-rule="evenodd" d="M11.3438 72.1794C11.3438 70.4875 12.7375 69.0938 14.4294 69.0938H18.5706C20.2625 69.0938 21.6562 70.4875 21.6562 72.1794V73.2188H27.8438V75.2812H25.7812V92.8125C25.7812 94.5125 24.3875 95.9062 22.6875 95.9062H10.3125C8.61255 95.9062 7.21875 94.5125 7.21875 92.8125V75.2812H5.15625V73.2188H11.3438V72.1794ZM18.5706 71.1562H14.4294C13.8494 71.1562 13.4062 71.5994 13.4062 72.1794V73.2188H19.5938V72.1794C19.5938 71.5994 19.1506 71.1562 18.5706 71.1562ZM11.3438 77.3438V91.7812H13.4062V77.3438H11.3438ZM15.4688 77.3438V91.7812H17.5312V77.3438H15.4688ZM19.5938 77.3438V91.7812H21.6562V77.3438H19.5938Z" fill="black"/>
</g>
<defs>
<clipPath id="clip0_838_732">
<rect width="33" height="132" fill="white"/>
</clipPath>
</defs>
</svg>
